<?xml version="1.0" encoding="UTF-8"?>
<svg xmlns="http://www.w3.org/2000/svg" viewBox="-26 -36 1582 952" width="1582" height="952"><style>
text{font-family:Helvetica, Arial, sans-serif;font-size:12px;fill:#111418;dominant-baseline:auto}
.d-mono{font-family:Menlo, Consolas, monospace;font-size:11px;fill:#2d343c}
.d-name{font-family:Helvetica, Arial, sans-serif;font-size:12.5px;font-weight:600;letter-spacing:.04em}
.d-italic{font-style:italic}
.d-comp{font-size:10.5px;font-style:italic;fill:#5b6470}
.d-frame{fill:none;stroke:#111418;stroke-width:1}
.d-frame-tab{fill:#ffffff;stroke:#111418;stroke-width:1}
.d-sym .d-shape{fill:#f4f8fd;stroke:#111418}
.d-sym .d-rule,.d-sym .d-stick{stroke:#111418}
.d-sym.c-b .d-shape{fill:#fdf8ee;stroke:#111418}
.d-sym.c-b .d-rule,.d-sym.c-b .d-stick{stroke:#111418}
.d-sym.c-c .d-shape{fill:#fbf3f6;stroke:#111418}
.d-sym.c-c .d-rule,.d-sym.c-c .d-stick{stroke:#111418}
.d-sym.c-n .d-shape{fill:#fffbe6;stroke:#5b6470}
.d-sym.c-n .d-rule,.d-sym.c-n .d-stick{stroke:#5b6470}
.d-shape{stroke-width:1.2}
.d-shape.dashed{stroke-dasharray:6 4}
.d-rule{stroke-width:.8;opacity:.55;fill:none}
.d-stick{fill:none;stroke-width:1.5}
.d-port{fill:#ffffff;stroke:#111418;stroke-width:1.2}
.d-port-dir{fill:#111418;stroke:none}
.d-line{fill:none;stroke:#2d343c;stroke-width:1.2}
.d-line.dashed{stroke-dasharray:6 4}
.d-head{fill:none;stroke:#2d343c;stroke-width:1.2}
.d-head.filled{fill:#2d343c}
.d-head.hollow{fill:#ffffff}
.d-hit{fill:none;stroke:transparent;stroke-width:12}
.d-label-bg{fill:#ffffff;opacity:.85}
</style><rect x="-26" y="-36" width="1582" height="952" fill="#fff"/><rect class="d-frame" x="-10" y="-20" width="1550" height="920"/><path class="d-frame-tab" d="M-10 -20h278.8v14l-10 10H-10z"/><text class="d-mono" x="0" y="-4">bdd [package] ToolkitShell [The shell]</text><g class="d-symbols"><g class="d-sym " data-sym="sy_008" transform="translate(560 40)"><rect class="d-shape" width="260" height="50"/><text class="d-mono" x="130" y="19" text-anchor="middle">«block»</text><text class="d-name" x="130" y="36" text-anchor="middle">ShellApp</text></g><g class="d-sym " data-sym="sy_009" transform="translate(40 300)"><rect class="d-shape" width="200" height="50"/><text class="d-mono" x="100" y="19" text-anchor="middle">«block»</text><text class="d-name" x="100" y="36" text-anchor="middle">ShellMenu</text></g><g class="d-sym " data-sym="sy_010" transform="translate(300 300)"><rect class="d-shape" width="240" height="50"/><text class="d-mono" x="120" y="19" text-anchor="middle">«block»</text><text class="d-name" x="120" y="36" text-anchor="middle">ShellPortal</text></g><g class="d-sym " data-sym="sy_011" transform="translate(640 300)"><rect class="d-shape" width="300" height="50"/><text class="d-mono" x="150" y="19" text-anchor="middle">«block»</text><text class="d-name" x="150" y="36" text-anchor="middle">EditorWindowController</text></g><g class="d-sym " data-sym="sy_012" transform="translate(1100 300)"><rect class="d-shape" width="220" height="50"/><text class="d-mono" x="110" y="19" text-anchor="middle">«block»</text><text class="d-name" x="110" y="36" text-anchor="middle">ShellConfig</text></g><g class="d-sym " data-sym="sy_013" transform="translate(180 560)"><rect class="d-shape" width="200" height="50"/><text class="d-mono" x="100" y="19" text-anchor="middle">«block»</text><text class="d-name" x="100" y="36" text-anchor="middle">PairingFlow</text></g><g class="d-sym " data-sym="sy_014" transform="translate(420 560)"><rect class="d-shape" width="180" height="50"/><text class="d-mono" x="90" y="19" text-anchor="middle">«block»</text><text class="d-name" x="90" y="36" text-anchor="middle">Keychain</text></g><g class="d-sym " data-sym="sy_015" transform="translate(640 560)"><rect class="d-shape" width="190" height="50"/><text class="d-mono" x="95" y="19" text-anchor="middle">«block»</text><text class="d-name" x="95" y="36" text-anchor="middle">WebDocument</text></g><g class="d-sym " data-sym="sy_016" transform="translate(870 560)"><rect class="d-shape" width="180" height="50"/><text class="d-mono" x="90" y="19" text-anchor="middle">«block»</text><text class="d-name" x="90" y="36" text-anchor="middle">Web page</text></g><g class="d-sym " data-sym="sy_017" transform="translate(1090 560)"><rect class="d-shape" width="180" height="50"/><text class="d-mono" x="90" y="19" text-anchor="middle">«block»</text><text class="d-name" x="90" y="36" text-anchor="middle">WebRoot</text></g><g class="d-sym " data-sym="sy_018" transform="translate(1310 560)"><rect class="d-shape" width="180" height="50"/><text class="d-mono" x="90" y="19" text-anchor="middle">«block»</text><text class="d-name" x="90" y="36" text-anchor="middle">PDFExporter</text></g><g class="d-sym " data-sym="sy_019" transform="translate(870 800)"><rect class="d-shape" width="180" height="50"/><text class="d-mono" x="90" y="19" text-anchor="middle">«block»</text><text class="d-name" x="90" y="36" text-anchor="middle">host.js</text></g></g><g class="d-paths"><g class="d-path" data-path="pa_008"><path class="d-hit" d="M690 90L690 195L140 195L140 300"/><path class="d-line" d="M690 90L690 195L140 195L140 300"/><path class="d-head filled" transform="translate(690 90) rotate(-90)" d="M0 0L-9 -5L-18 0L-9 5Z"/><text class="d-mono" x="146" y="284">menu</text><text class="d-mono" x="134" y="284" text-anchor="end">1</text></g><g class="d-path" data-path="pa_009"><path class="d-hit" d="M690 90L690 195L420 195L420 300"/><path class="d-line" d="M690 90L690 195L420 195L420 300"/><path class="d-head filled" transform="translate(690 90) rotate(-90)" d="M0 0L-9 -5L-18 0L-9 5Z"/><text class="d-mono" x="426" y="284">portal</text><text class="d-mono" x="414" y="284" text-anchor="end">1</text></g><g class="d-path" data-path="pa_010"><path class="d-hit" d="M690 90L690 195L790 195L790 300"/><path class="d-line" d="M690 90L690 195L790 195L790 300"/><path class="d-head filled" transform="translate(690 90) rotate(-90)" d="M0 0L-9 -5L-18 0L-9 5Z"/><text class="d-mono" x="796" y="284">windows</text><text class="d-mono" x="784" y="284" text-anchor="end">0..*</text></g><g class="d-path" data-path="pa_011"><path class="d-hit" d="M690 90L690 195L1210 195L1210 300"/><path class="d-line" d="M690 90L690 195L1210 195L1210 300"/><path class="d-head filled" transform="translate(690 90) rotate(-90)" d="M0 0L-9 -5L-18 0L-9 5Z"/><text class="d-mono" x="1216" y="284">config</text><text class="d-mono" x="1204" y="284" text-anchor="end">1</text></g><g class="d-path" data-path="pa_012"><path class="d-hit" d="M380 350L380 455L280 455L280 560"/><path class="d-line" d="M380 350L380 455L280 455L280 560"/><path class="d-head" transform="translate(280 560) rotate(90)" d="M-11 -5L0 0L-11 5"/><path class="d-head hollow" transform="translate(380 350) rotate(-90)" d="M0 0L-9 -5L-18 0L-9 5Z"/><text class="d-mono" x="286" y="544">pairing</text><text class="d-mono" x="274" y="544" text-anchor="end">1</text></g><g class="d-path" data-path="pa_013"><path class="d-hit" d="M460 350L460 455L510 455L510 560"/><path class="d-line" d="M460 350L460 455L510 455L510 560"/><path class="d-head" transform="translate(510 560) rotate(90)" d="M-11 -5L0 0L-11 5"/><path class="d-head hollow" transform="translate(460 350) rotate(-90)" d="M0 0L-9 -5L-18 0L-9 5Z"/><text class="d-mono" x="516" y="544">tokens</text><text class="d-mono" x="504" y="544" text-anchor="end">1</text></g><g class="d-path" data-path="pa_014"><path class="d-hit" d="M790 350L790 455L735 455L735 560"/><path class="d-line" d="M790 350L790 455L735 455L735 560"/><path class="d-head filled" transform="translate(790 350) rotate(-90)" d="M0 0L-9 -5L-18 0L-9 5Z"/><text class="d-mono" x="741" y="544">document</text><text class="d-mono" x="729" y="544" text-anchor="end">1</text></g><g class="d-path" data-path="pa_015"><path class="d-hit" d="M790 350L790 455L960 455L960 560"/><path class="d-line" d="M790 350L790 455L960 455L960 560"/><path class="d-head filled" transform="translate(790 350) rotate(-90)" d="M0 0L-9 -5L-18 0L-9 5Z"/><text class="d-mono" x="966" y="544">page</text><text class="d-mono" x="954" y="544" text-anchor="end">1</text></g><g class="d-path" data-path="pa_016"><path class="d-hit" d="M790 350L790 455L1180 455L1180 560"/><path class="d-line" d="M790 350L790 455L1180 455L1180 560"/><path class="d-head filled" transform="translate(790 350) rotate(-90)" d="M0 0L-9 -5L-18 0L-9 5Z"/><text class="d-mono" x="1186" y="544">webRoot</text><text class="d-mono" x="1174" y="544" text-anchor="end">1</text></g><g class="d-path" data-path="pa_017"><path class="d-hit" d="M790 350L790 455L1400 455L1400 560"/><path class="d-line" d="M790 350L790 455L1400 455L1400 560"/><path class="d-head filled" transform="translate(790 350) rotate(-90)" d="M0 0L-9 -5L-18 0L-9 5Z"/><text class="d-mono" x="1406" y="544">pdf</text><text class="d-mono" x="1394" y="544" text-anchor="end">1</text></g><g class="d-path" data-path="pa_018"><path class="d-hit" d="M960 610L960 705L960 800"/><path class="d-line" d="M960 610L960 705L960 800"/><path class="d-head filled" transform="translate(960 610) rotate(-90)" d="M0 0L-9 -5L-18 0L-9 5Z"/><text class="d-mono" x="966" y="784">host</text><text class="d-mono" x="954" y="784" text-anchor="end">1</text></g></g><g class="d-ports"></g></svg>
